# xmcd CD database file
#
# Track frame offsets:
#	150
#	16420
#	31522
#	51122
#	74135
#	88860
#	98570
#	108995
#	118420
#	135355
#	158770
#
# Disc length: 2310 seconds
#
# Revision: 3
# Processed by: cddbd v1.5.2PL0 Copyright (c) Steve Scherf et al.
# Submitted via: CDex 2.00
#
DISCID=8b09040b
DTITLE=Ry Cooder - Jazz
DYEAR=1978
DGENRE=Blues
TTITLE0=Big Bad Bill Is Sweet William Now
TTITLE1=Face To Face That I Shall Meet Him
TTITLE2=Tia Juana
TTITLE3=The Dream
TTITLE4=Happy Meeting In Glory
TTITLE5=In A Mist
TTITLE6=Flashes
TTITLE7=Davenport Blues
TTITLE8=Shine
TTITLE9=Nobody
TTITLE10=We Shall Be Happy
EXTD=YEAR: 1978
EXTT0=
EXTT1=
EXTT2=
EXTT3=
EXTT4=
EXTT5=
EXTT6=
EXTT7=
EXTT8=
EXTT9=
EXTT10=
PLAYORDER=
